<?xml version="1.0" encoding="UTF-8" standalone="no"?>
<!-- Generator: Adobe Illustrator 16.0.0, SVG Export Plug-In . SVG Version: 6.00 Build 0)  -->

<svg
   xmlns:dc="http://purl.org/dc/elements/1.1/"
   xmlns:cc="http://creativecommons.org/ns#"
   xmlns:rdf="http://www.w3.org/1999/02/22-rdf-syntax-ns#"
   xmlns:svg="http://www.w3.org/2000/svg"
   xmlns="http://www.w3.org/2000/svg"
   xmlns:sodipodi="http://sodipodi.sourceforge.net/DTD/sodipodi-0.dtd"
   xmlns:inkscape="http://www.inkscape.org/namespaces/inkscape"
   class="bulb"
   version="1.1"
   x="0px"
   y="0px"
   width="128px"
   height="128px"
   viewBox="0 0 128 128"
   enable-background="new 0 0 128 128"
   xml:space="preserve"
   id="svg2"
   inkscape:version="0.91 r13725"
   sodipodi:docname="test2.svg"><metadata
     id="metadata15"><rdf:RDF><cc:Work
         rdf:about=""><dc:format>image/svg+xml</dc:format><dc:type
           rdf:resource="http://purl.org/dc/dcmitype/StillImage" /></cc:Work></rdf:RDF></metadata><defs
     id="defs13" /><sodipodi:namedview
     pagecolor="#ffffff"
     bordercolor="#666666"
     borderopacity="1"
     objecttolerance="10"
     gridtolerance="10"
     guidetolerance="10"
     inkscape:pageopacity="0"
     inkscape:pageshadow="2"
     inkscape:window-width="1920"
     inkscape:window-height="1039"
     id="namedview11"
     showgrid="false"
     inkscape:zoom="5.6568542"
     inkscape:cx="23.87264"
     inkscape:cy="78.249986"
     inkscape:window-x="0"
     inkscape:window-y="41"
     inkscape:window-maximized="1"
     inkscape:current-layer="svg2" /><g
     id="s-bulb"
     style="fill:#ffffff"><g
       id="g5"
       style="fill:#ffffff"><path
         style="clip-rule:evenodd;fill-rule:evenodd;fill:#ffffff"
         d="M 62.578125,2.8710938 C 40.547219,3.8260114 24.374168,25.923549 26.262927,47.179218 c 0.411362,11.718031 6.553813,21.768381 14.115703,30.42305 3.435161,4.652774 3.708201,12.704781 10.775667,13.35867 9.272983,3.518489 18.239024,8.574659 27.550781,11.544922 1.295173,-2.545306 -4.866163,-2.511576 -6.074984,-3.948219 C 64.361291,94.578099 55.397512,91.580616 47.345703,87.394531 44.35996,80.587549 40.632991,74.052314 35.480469,68.564453 22.186597,50.542134 26.799045,22.049287 45.941406,10.001953 58.218524,1.6589741 75.478156,3.2077905 86.439453,13.076172 103.6892,27.501593 105.1308,56.130723 89.747989,72.435281 c -4.325773,4.283487 -5.961978,10.31898 -9.124942,15.244407 -0.802908,1.42777 -5.057573,0.763318 -3.423828,2.841796 6.86897,0.444836 6.925214,-8.072562 10.269531,-12.132812 6.144964,-7.955441 12.86239,-16.10777 13.97852,-26.550781 4.64967,-21.9457 -11.148718,-46.825974 -34.175786,-48.8417972 -1.557789,-0.1665071 -3.128772,-0.2103866 -4.693359,-0.125 z"
         id="path7"
         inkscape:connector-curvature="0" /><path
         style="clip-rule:evenodd;fill-rule:evenodd;fill:#ffffff"
         d="m 50.183594,100.7168 c -2.195816,1.88261 3.355445,2.48777 4.459471,3.43377 6.09689,3.26209 13.471235,4.84674 18.931154,8.93732 1.4911,8.11021 -10.226074,13.75153 -15.933594,7.72461 -2.522697,-1.74199 -2.816278,-5.05569 -3.730469,-7.52539 -2.942493,-0.25258 -0.128391,5.06101 0.390625,6.22851 5.048342,9.27035 20.60423,5.71579 21.285763,-4.81511 -0.660575,-1.87923 5.096509,0.94491 2.9408,-1.78645 -9.464568,-3.99394 -18.771946,-8.54325 -28.34375,-12.19726 z"
         id="path9"
         inkscape:connector-curvature="0" /></g></g><path
     inkscape:connector-curvature="0"
     id="path4326"
     d="M 54.246288,75.674099 43.904852,48.538876"
     style="fill:#ffffff;fill-rule:evenodd;stroke:#ffffff;stroke-width:1.5;stroke-linecap:round;stroke-linejoin:round;stroke-miterlimit:4;stroke-dasharray:none;stroke-opacity:1" /><path
     inkscape:connector-curvature="0"
     id="path4326-6"
     d="M 72.695852,75.673672 83.037289,48.538449"
     style="fill:#ffffff;fill-rule:evenodd;stroke:#ffffff;stroke-width:1.5;stroke-linecap:round;stroke-linejoin:round;stroke-miterlimit:4;stroke-dasharray:none;stroke-opacity:1" /></svg>