<?xml version="1.0" encoding="UTF-8" standalone="no"?>
<!-- Created with Inkscape (http://www.inkscape.org/) -->

<svg
   xmlns:dc="http://purl.org/dc/elements/1.1/"
   xmlns:cc="http://creativecommons.org/ns#"
   xmlns:rdf="http://www.w3.org/1999/02/22-rdf-syntax-ns#"
   xmlns:svg="http://www.w3.org/2000/svg"
   xmlns="http://www.w3.org/2000/svg"
   xmlns:sodipodi="http://sodipodi.sourceforge.net/DTD/sodipodi-0.dtd"
   xmlns:inkscape="http://www.inkscape.org/namespaces/inkscape"
   version="1.1"
   id="svg821"
   width="32.001148"
   height="40.013172">
  <metadata
     id="metadata827">
    <rdf:RDF>
      <cc:Work
         rdf:about="">
        <dc:format>image/svg+xml</dc:format>
        <dc:type
           rdf:resource="http://purl.org/dc/dcmitype/StillImage" />
      </cc:Work>
    </rdf:RDF>
  </metadata>
  <defs
     id="defs825" />
  <sodipodi:namedview
     pagecolor="#ffffff device-cmyk(0.0 0.0 0.0 0.0)"
     bordercolor="#666666 device-cmyk(0.0 0.0 0.0 0.6)"
     borderopacity="1"
     objecttolerance="10"
     gridtolerance="10"
     guidetolerance="10"
     inkscape:pageopacity="0"
     inkscape:pageshadow="2"
     inkscape:window-width="640"
     inkscape:window-height="480"
     id="namedview823" />
  <inkscape:clipboard
     style="font-variant-east_asian:normal;opacity:1;vector-effect:none;fill:#000000 device-cmyk(0.0 0.0 0.0 1.0);fill-opacity:1;stroke-width:1;stroke-linecap:butt;stroke-linejoin:miter;stroke-miterlimit:4;stroke-dasharray:none;stroke-dashoffset:0;stroke-opacity:1"
     min="7.9988505,11.999914"
     max="40,52.013085" />
  <path
     id="path6"
     d="m 28.001149,20.005085 a 2.207,2.207 0 0 0 -1.146,-1.671 L 6.9181495,4.3650854 a 2,2 0 0 0 -2.057,-0.159 1.675,1.675 0 0 0 -0.86,1.567 V 25.996085 a 2,2 0 0 1 -4.00000001,0 V 5.7730854 A 5.662,5.662 0 0 1 5.6931495,8.5357146e-5 6.379,6.379 0 0 1 9.1481495,1.0460854 L 29.134149,15.046085 a 6.109,6.109 0 0 1 2.867,4.959 6.109,6.109 0 0 1 -2.866,4.958 l -19.9859995,14 a 6.379,6.379 0 0 1 -3.456,1.05 5.662,5.662 0 0 1 -5.69200001,-5.776 v -0.224 a 2,2 0 0 1 4.00000001,0 v 0.224 a 1.675,1.675 0 0 0 0.859,1.567 2,2 0 0 0 2.057,-0.159 l 19.9379995,-13.969 a 2.207,2.207 0 0 0 1.146,-1.671 z"
     inkscape:connector-curvature="0" />
</svg>
