<?xml version="1.0" encoding="UTF-8" standalone="no"?>
<svg
   xmlns:dc="http://purl.org/dc/elements/1.1/"
   xmlns:cc="http://creativecommons.org/ns#"
   xmlns:rdf="http://www.w3.org/1999/02/22-rdf-syntax-ns#"
   xmlns:svg="http://www.w3.org/2000/svg"
   xmlns="http://www.w3.org/2000/svg"
   xmlns:sodipodi="http://sodipodi.sourceforge.net/DTD/sodipodi-0.dtd"
   xmlns:inkscape="http://www.inkscape.org/namespaces/inkscape"
   viewBox="0 0 32.001152 40.013172"
   x="0px"
   y="0px"
   version="1.1"
   id="svg8"
   sodipodi:docname="previous.svg"
   inkscape:version="0.92.2 2405546, 2018-03-11"
   width="32.001152"
   height="40.013172">
  <metadata
     id="metadata14">
    <rdf:RDF>
      <cc:Work
         rdf:about="">
        <dc:format>image/svg+xml</dc:format>
        <dc:type
           rdf:resource="http://purl.org/dc/dcmitype/StillImage" />
        <dc:title>Aesthetic-icons--EXPORT</dc:title>
      </cc:Work>
    </rdf:RDF>
  </metadata>
  <defs
     id="defs12">
    <marker
       inkscape:stockid="Arrow1Lstart"
       orient="auto"
       refY="0"
       refX="0"
       id="Arrow1Lstart"
       style="overflow:visible"
       inkscape:isstock="true">
      <path
         id="path830"
         d="M 0,0 5,-5 -12.5,0 5,5 Z"
         style="fill:#000000;fill-opacity:1;fill-rule:evenodd;stroke:none;stroke-width:1.00000003pt;stroke-opacity:1"
         transform="matrix(0.8,0,0,0.8,10,0)"
         inkscape:connector-curvature="0" />
    </marker>
  </defs>
  <sodipodi:namedview
     pagecolor="#ffffff"
     bordercolor="#666666"
     borderopacity="1"
     objecttolerance="10"
     gridtolerance="10"
     guidetolerance="10"
     inkscape:pageopacity="0"
     inkscape:pageshadow="2"
     inkscape:window-width="1918"
     inkscape:window-height="1058"
     id="namedview10"
     showgrid="false"
     inkscape:zoom="3.6875"
     inkscape:cx="-77.015799"
     inkscape:cy="18.91534"
     inkscape:window-x="0"
     inkscape:window-y="20"
     inkscape:window-maximized="1"
     inkscape:current-layer="svg8"
     fit-margin-top="0"
     fit-margin-left="0"
     fit-margin-right="0"
     fit-margin-bottom="0" />
  <title
     id="title2">Aesthetic-icons--EXPORT</title>
  <path
     d="m 4.000001,20.005085 a 2.207,2.207 0 0 1 1.146,-1.671 l 19.937,-13.9689996 a 2,2 0 0 1 2.057,-0.159 1.675,1.675 0 0 1 0.86,1.567 V 25.996085 a 2,2 0 0 0 4,0 V 5.7730854 A 5.662,5.662 0 0 0 26.308001,8.5357146e-5 6.379,6.379 0 0 0 22.853001,1.0460854 L 2.867001,15.046085 A 6.109,6.109 0 0 0 0,20.005085 a 6.109,6.109 0 0 0 2.866001,4.958 l 19.986,14 a 6.379,6.379 0 0 0 3.456,1.05 5.662,5.662 0 0 0 5.692,-5.776 v -0.224 a 2,2 0 0 0 -4,0 v 0.224 a 1.675,1.675 0 0 1 -0.859,1.567 2,2 0 0 1 -2.057,-0.159 l -19.938,-13.969 a 2.207,2.207 0 0 1 -1.146,-1.671 z"
     id="path6"
     style="opacity:1"
     inkscape:connector-curvature="0" />
</svg>
